<svg xmlns="http://www.w3.org/2000/svg" xmlns:xlink="http://www.w3.org/1999/xlink" width="1024" zoomAndPan="magnify" viewBox="0 0 768 767.999994" height="1024" preserveAspectRatio="xMidYMid meet" version="1.0"><defs><g/><clipPath id="711aee123c"><rect x="0" width="603" y="0" height="646"/></clipPath><clipPath id="e7039da10f"><path d="M 14.101562 14.101562 L 753.601562 14.101562 L 753.601562 753.601562 L 14.101562 753.601562 Z M 14.101562 14.101562 " clip-rule="nonzero"/></clipPath></defs><g transform="matrix(1, 0, 0, 1, 83, 61)"><g clip-path="url(#711aee123c)"><g fill="#000000" fill-opacity="1"><g transform="translate(0.167733, 462.828155)"><g><path d="M 134.328125 89.03125 L 111.171875 54.046875 C 112.203125 52.671875 113.570312 50.953125 115.28125 48.890625 C 117 46.835938 120.601562 42.976562 126.09375 37.3125 C 131.582031 31.65625 136.898438 26.679688 142.046875 22.390625 C 147.191406 18.097656 153.195312 14.234375 160.0625 10.796875 C 166.925781 7.367188 173.273438 5.65625 179.109375 5.65625 L 179.109375 3.609375 C 129.015625 -6.003906 88.613281 -30.710938 57.90625 -70.515625 C 27.195312 -110.316406 11.84375 -157.664062 11.84375 -212.5625 C 11.84375 -274.320312 32.425781 -326.390625 73.59375 -368.765625 C 114.769531 -411.140625 164.695312 -432.328125 223.375 -432.328125 C 282.382812 -432.328125 332.304688 -411.140625 373.140625 -368.765625 C 413.972656 -326.390625 434.390625 -274.320312 434.390625 -212.5625 C 434.390625 -162.125 420.832031 -117.6875 393.71875 -79.25 C 366.613281 -40.820312 330.929688 -14.921875 286.671875 -1.546875 L 286.671875 0.515625 C 288.734375 0.515625 297.828125 2.144531 313.953125 5.40625 C 330.078125 8.664062 342.941406 10.296875 352.546875 10.296875 C 365.585938 10.296875 377.425781 7.976562 388.0625 3.34375 C 398.695312 -1.289062 406.070312 -5.835938 410.1875 -10.296875 L 416.375 -17.5 L 446.734375 47.859375 C 446.046875 49.578125 444.929688 51.722656 443.390625 54.296875 C 441.847656 56.867188 438.332031 61.414062 432.84375 67.9375 C 427.351562 74.457031 421.257812 80.289062 414.5625 85.4375 C 407.875 90.582031 398.953125 95.210938 387.796875 99.328125 C 376.648438 103.441406 364.726562 105.5 352.03125 105.5 C 331.101562 105.5 305.539062 98.804688 275.34375 85.421875 C 245.15625 72.046875 219.082031 65.359375 197.125 65.359375 C 185.113281 65.359375 173.875 67.332031 163.40625 71.28125 C 152.9375 75.226562 145.472656 79.257812 141.015625 83.375 Z M 116.3125 -212.5625 C 116.3125 -196.09375 118.195312 -180.738281 121.96875 -166.5 C 125.75 -152.257812 131.671875 -139.304688 139.734375 -127.640625 C 147.796875 -115.972656 158.945312 -106.789062 173.1875 -100.09375 C 187.425781 -93.40625 204.15625 -90.0625 223.375 -90.0625 C 259.394531 -90.0625 286.15625 -101.726562 303.65625 -125.0625 C 321.15625 -148.394531 329.90625 -177.5625 329.90625 -212.5625 C 329.90625 -247.21875 320.984375 -276.296875 303.140625 -299.796875 C 285.296875 -323.296875 258.707031 -335.046875 223.375 -335.046875 C 188.375 -335.046875 161.78125 -323.207031 143.59375 -299.53125 C 125.40625 -275.863281 116.3125 -246.875 116.3125 -212.5625 Z M 116.3125 -212.5625 "/></g></g></g><g fill="#000000" fill-opacity="1"><g transform="translate(446.332358, 462.828155)"><g><path d="M 39.625 -411.21875 C 50.257812 -421.851562 62.953125 -427.171875 77.703125 -427.171875 C 92.460938 -427.171875 105.160156 -421.851562 115.796875 -411.21875 C 126.429688 -400.582031 131.75 -387.882812 131.75 -373.125 C 131.75 -358.375 126.429688 -345.679688 115.796875 -335.046875 C 105.160156 -324.410156 92.460938 -319.09375 77.703125 -319.09375 C 62.953125 -319.09375 50.257812 -324.410156 39.625 -335.046875 C 28.988281 -345.679688 23.671875 -358.375 23.671875 -373.125 C 23.671875 -387.882812 28.988281 -400.582031 39.625 -411.21875 Z M 30.875 -264.03125 L 30.875 0 L 121.984375 0 L 121.984375 -264.03125 Z M 30.875 -264.03125 "/></g></g></g></g></g><g clip-path="url(#e7039da10f)"><path fill="#000000" d="M 137.351562 14.101562 C 69.464844 14.101562 14.101562 69.464844 14.101562 137.351562 L 14.101562 630.351562 C 14.101562 698.234375 69.464844 753.601562 137.351562 753.601562 L 630.351562 753.601562 C 698.234375 753.601562 753.601562 698.234375 753.601562 630.351562 L 753.601562 137.351562 C 753.601562 69.464844 698.234375 14.101562 630.351562 14.101562 Z M 137.351562 49.3125 L 630.351562 49.3125 C 679.183594 49.3125 718.386719 88.519531 718.386719 137.351562 L 718.386719 630.351562 C 718.386719 679.183594 679.183594 718.386719 630.351562 718.386719 L 137.351562 718.386719 C 88.519531 718.386719 49.3125 679.183594 49.3125 630.351562 L 49.3125 137.351562 C 49.3125 88.519531 88.519531 49.3125 137.351562 49.3125 Z M 137.351562 49.3125 " fill-opacity="1" fill-rule="nonzero"/></g></svg>