<svg xmlns="http://www.w3.org/2000/svg" width="16" height="16" viewBox="0 0 16 16">
  <g fill="#C5C5C5" transform="translate(8 8)">
    <rect x="-0.75" y="-7.5" width="1.5" height="2.6" rx="0.75"/>
    <rect x="-0.75" y="4.9" width="1.5" height="2.6" rx="0.75"/>
    <rect x="4.9" y="-0.75" width="2.6" height="1.5" rx="0.75"/>
    <rect x="-7.5" y="-0.75" width="2.6" height="1.5" rx="0.75"/>
    <g transform="rotate(45)">
      <rect x="-0.75" y="-7.5" width="1.5" height="2.6" rx="0.75"/>
      <rect x="-0.75" y="4.9" width="1.5" height="2.6" rx="0.75"/>
      <rect x="4.9" y="-0.75" width="2.6" height="1.5" rx="0.75"/>
      <rect x="-7.5" y="-0.75" width="2.6" height="1.5" rx="0.75"/>
    </g>
  </g>
  <path fill="#C5C5C5" fill-rule="evenodd" d="M8 3.2a4.8 4.8 0 1 0 0 9.6a4.8 4.8 0 1 0 0-9.6zm0 2.6a2.2 2.2 0 1 0 0 4.4a2.2 2.2 0 1 0 0-4.4z"/>
</svg>
